<?xml version="1.0" standalone="no"?>
<!DOCTYPE svg PUBLIC "-//W3C//DTD SVG 20010904//EN"
 "http://www.w3.org/TR/2001/REC-SVG-20010904/DTD/svg10.dtd">
<svg version="1.0" xmlns="http://www.w3.org/2000/svg"
 width="1707.000000pt" height="1707.000000pt" viewBox="0 0 1707.000000 1707.000000"
 preserveAspectRatio="xMidYMid meet">
<metadata>
Created by potrace 1.14, written by Peter Selinger 2001-2017
</metadata>
<g transform="translate(0.000000,1707.000000) scale(0.100000,-0.100000)"
fill="#000000" stroke="none">
<path d="M540 14233 c-1 -52 -1 -1489 0 -1613 l0 -75 1483 1 c815 0 1488 -2
1495 -4 10 -3 8 -9 -5 -21 -10 -9 -54 -47 -98 -86 -44 -38 -85 -74 -91 -80 -6
-5 -42 -37 -80 -70 -37 -33 -131 -116 -209 -185 -78 -69 -172 -152 -210 -185
-37 -33 -78 -69 -89 -80 -12 -11 -55 -49 -96 -85 -41 -36 -80 -69 -86 -75 -32
-29 -164 -146 -199 -176 -22 -19 -42 -37 -45 -40 -3 -3 -63 -57 -135 -120 -71
-63 -143 -126 -160 -141 -16 -15 -39 -35 -51 -45 -30 -25 -162 -142 -203 -179
l-34 -30 14 -55 c7 -30 13 -56 14 -59 0 -3 4 -11 8 -17 5 -7 6 -13 3 -13 -3 0
2 -19 10 -42 8 -24 26 -83 39 -133 13 -49 53 -196 90 -325 36 -129 82 -295
102 -368 l37 -133 70 6 c39 3 100 8 136 11 36 3 79 7 95 9 232 25 749 22 920
-4 33 -5 78 -12 100 -16 305 -46 554 -165 683 -328 128 -160 181 -323 168
-509 -3 -49 -8 -93 -10 -97 -3 -4 -7 -21 -10 -37 -8 -44 -46 -154 -68 -199
-118 -231 -377 -381 -728 -422 -85 -10 -325 -9 -420 1 -153 16 -394 70 -549
123 -107 36 -346 153 -446 218 -79 51 -238 172 -295 225 -68 62 -177 169 -236
232 l-71 76 -161 -157 c-89 -86 -336 -328 -549 -537 -213 -210 -452 -444 -531
-521 l-143 -140 94 -89 c129 -123 218 -201 350 -306 61 -49 121 -97 132 -106
47 -39 358 -242 450 -294 251 -141 472 -239 733 -327 105 -36 337 -100 412
-115 14 -3 59 -12 100 -20 109 -22 131 -26 170 -32 177 -28 358 -48 550 -61
147 -10 547 -10 665 -1 91 8 298 35 325 43 8 2 31 7 50 10 158 27 402 96 585
165 451 173 856 439 1110 730 100 115 250 348 322 500 69 145 72 152 111 263
l39 109 13 -34 c16 -40 33 -83 50 -123 18 -43 176 -440 291 -730 55 -137 104
-259 109 -270 5 -11 36 -90 70 -175 34 -85 67 -168 74 -185 8 -16 28 -68 46
-115 17 -47 35 -89 40 -93 4 -5 511 -9 1126 -8 1354 0 1224 -1 1224 12 0 6 6
25 14 42 8 18 60 163 116 322 104 295 157 445 250 705 29 80 67 188 85 240 19
52 48 133 65 180 17 47 39 110 50 140 10 30 86 246 170 480 84 234 160 450
171 480 10 30 34 100 54 155 52 142 134 372 152 425 8 25 18 54 22 65 16 40
50 133 90 250 23 66 46 129 51 140 4 11 76 214 159 450 84 237 158 446 166
465 7 19 19 53 26 75 6 22 14 45 18 50 3 6 6 12 7 15 1 6 6 21 23 70 7 19 29
82 49 139 l37 104 13 -34 c8 -19 36 -95 62 -169 101 -285 212 -597 230 -645
10 -27 48 -135 85 -240 37 -104 73 -206 80 -225 8 -19 53 -145 100 -280 127
-358 188 -530 270 -760 41 -113 122 -340 180 -505 58 -165 154 -433 211 -595
128 -359 152 -427 249 -700 42 -118 80 -224 85 -235 4 -11 51 -144 104 -295
53 -151 101 -285 106 -297 10 -23 11 -23 225 -23 118 0 757 0 1420 0 663 0
1527 0 1920 0 l715 0 0 965 0 965 -357 0 c-197 0 -805 0 -1350 0 -546 0 -993
1 -993 3 0 1 -14 36 -31 77 -17 41 -188 469 -380 950 -193 481 -356 889 -364
905 -7 17 -20 48 -28 70 -18 48 -184 462 -197 490 -5 11 -184 459 -399 995
-602 1508 -760 1903 -770 1925 -17 37 -169 420 -176 443 l-6 22 -1000 0 -999
0 -11 -27 c-6 -15 -16 -41 -24 -58 -7 -16 -52 -129 -100 -250 -48 -121 -93
-233 -100 -250 -7 -16 -25 -61 -40 -100 -15 -38 -33 -83 -40 -100 -7 -16 -54
-133 -104 -260 -51 -126 -99 -244 -106 -262 -8 -17 -15 -35 -15 -40 0 -6 -6
-23 -14 -39 -8 -16 -242 -598 -520 -1294 -279 -696 -511 -1274 -516 -1285 -5
-11 -86 -213 -180 -450 -95 -236 -175 -434 -178 -439 -5 -9 -65 140 -361 889
-78 198 -146 369 -151 380 -9 18 -257 646 -455 1150 -5 11 -9 22 -10 25 -1 3
-9 23 -19 45 -10 22 -19 45 -20 50 -2 6 -8 21 -13 35 -11 26 -113 283 -328
825 -374 945 -449 1133 -465 1170 -9 22 -21 51 -25 65 -7 25 -19 55 -49 122
-9 20 -19 50 -22 67 l-7 31 -2803 0 -2804 0 0 -47z m4447 -2999 c89 -223 143
-369 134 -366 -8 3 -37 16 -64 29 -140 68 -442 178 -625 227 -48 13 -98 28
-110 33 -24 9 -24 9 11 36 19 15 41 32 49 39 7 7 108 94 223 193 116 98 212
183 214 188 2 5 7 5 11 0 5 -4 75 -175 157 -379z"/>
<path d="M11109 5762 l-205 -2 0 -1455 0 -1455 243 0 242 0 3 663 c3 655 3
663 25 720 73 194 223 311 415 324 251 18 427 -110 484 -353 9 -40 14 -341 14
-892 l0 -462 243 2 242 3 -1 650 c0 748 -4 824 -40 968 -62 245 -249 426 -507
492 -117 30 -303 29 -408 -3 -179 -53 -320 -156 -422 -305 l-47 -68 0 584 0
585 -37 3 c-21 2 -130 3 -244 1z"/>
<path d="M3830 5630 c-1 -3 -2 -103 -3 -223 -2 -187 0 -217 13 -218 8 -1 210
-2 449 -3 l433 -1 0 -1167 0 -1168 253 0 253 0 0 1133 c1 622 1 1148 2 1168
l0 35 443 0 442 0 3 225 2 225 -1145 0 c-630 0 -1145 -3 -1145 -6z"/>
<path d="M6916 4979 c-275 -40 -539 -211 -703 -454 -74 -109 -149 -287 -167
-395 -4 -19 -10 -55 -14 -80 -9 -58 -9 -260 0 -325 34 -236 149 -467 312 -631
51 -51 159 -137 206 -163 186 -106 335 -141 570 -136 85 1 162 5 170 8 8 4 31
8 50 11 226 35 433 144 598 316 42 44 50 57 39 65 -17 12 -90 74 -200 168
l-78 67 -48 -49 c-120 -123 -298 -194 -515 -207 -212 -12 -356 52 -486 217
-63 80 -140 248 -140 306 l0 23 793 2 792 3 -1 130 c0 121 -6 205 -19 265 -3
14 -7 37 -10 51 -8 43 -46 160 -67 209 -77 175 -186 317 -318 417 -106 80
-239 138 -384 169 -84 18 -297 25 -380 13z m294 -396 c184 -52 328 -219 385
-448 l22 -90 -555 -3 c-305 -1 -557 0 -560 3 -9 9 37 167 67 232 121 259 376
381 641 306z"/>
<path d="M9475 4983 c-128 -14 -289 -60 -390 -110 -166 -83 -343 -237 -438
-379 -65 -99 -122 -226 -153 -341 -35 -130 -41 -335 -14 -463 30 -138 73 -253
125 -335 70 -112 95 -145 153 -206 166 -177 399 -300 642 -342 125 -22 330
-16 450 13 154 37 266 86 402 177 66 44 198 163 198 178 0 7 -79 84 -255 249
-49 46 -65 55 -65 36 0 -17 -109 -120 -166 -156 -54 -34 -155 -77 -211 -90
-61 -13 -185 -16 -246 -5 -268 47 -480 259 -536 538 -55 271 41 525 267 706
12 9 26 17 31 17 5 0 11 3 13 8 11 24 158 78 248 90 202 28 413 -47 553 -197
26 -28 50 -51 53 -51 6 0 20 15 114 120 36 40 76 85 90 99 14 15 38 41 54 59
l30 32 -35 36 c-125 133 -357 256 -565 299 -73 15 -278 26 -349 18z"/>
</g>
</svg>
